:SAMPLES-PER-SECOND 30
:FULLY-SPECIFIED
:DEGREES
726
root  22.6184 37.4556 10.3009 -147.289 -84.4347 165.164
RightUpLeg  -59.2183 -23.1038 11.4402
RightLeg  49.6338 -5.74502 -7.56502
RightFoot  -2.10375 -0.147307 1.72028
RightToes  5.82063e-011 0 -3.6325e-017
Spine  67.6403 -2.61873 6.18992
Spine1  4.61214 2.38529 -2.92477
HEad  -55.6367 -9.8253 -0.919906
LeftShoulder1  5.30933 -23.4645 -12.5262
LeftArm  -68.1234 -68.8962 43.8306
LeftForeArm  63.6511 -24.8769 -2.26147
LeftHand  -0.244104 0.0205437 5.32207
RightShoulder  2.15875 10.2949 8.182
RightArm  -64.8901 63.4941 -31.1799
RightForeArm  32.8235 14.3638 2.9451
RightHand  -26.0296 39.4313 -60.8727
LeftUpLeg  -41.3552 17.4294 -7.28245
LeftLeg  41.0479 6.32473 6.25797
LeftFoot  -16.9972 -0.121036 -4.52589
LeftToes  1.45487e-011 -6.19069e-011 1.65092e-011
727
root  21.3044 37.4934 10.3223 -144.828 -83.7627 163.456
RightUpLeg  -59.9183 -23.263 14.8019
RightLeg  35.9723 -5.61035 -4.83525
RightFoot  -4.32511 -0.290201 4.19322
RightToes  5.82063e-011 0 -3.6325e-017
Spine  67.6472 -3.06563 6.72962
Spine1  3.92389 2.33689 -3.32648
HEad  -55.3115 -9.51577 -0.91989
LeftShoulder1  5.06765 -23.458 -11.5329
LeftArm  -68.1594 -68.083 43.2282
LeftForeArm  63.5858 -24.436 -2.20661
LeftHand  -0.244104 0.0205437 5.32207
RightShoulder  2.03331 9.78646 7.80492
RightArm  -65.4791 63.534 -32.9535
RightForeArm  32.7456 14.8722 3.04698
RightHand  -26.0528 39.462 -60.8816
LeftUpLeg  -39.5623 17.4328 -7.45535
LeftLeg  40.7746 6.64855 6.49503
LeftFoot  -18.41 -0.197173 -4.9954
LeftToes  1.45487e-011 -6.19069e-011 1.65092e-011
728
root  19.8471 37.4121 10.1581 -134.575 -83.3566 153.494
RightUpLeg  -58.4224 -23.4978 15.927
RightLeg  22.8072 -3.01373 -1.09518
RightFoot  -3.60945 -0.415699 5.78099
RightToes  5.82063e-011 0 -3.6325e-017
Spine  68.0509 -4.28316 6.59774
Spine1  3.23105 1.59829 -4.93514
HEad  -54.9763 -8.42584 0.0777589
LeftShoulder1  4.24635 -22.0226 -9.16255
LeftArm  -67.3911 -67.64 40.8822
LeftForeArm  63.6202 -24.7261 -2.23882
LeftHand  -0.244104 0.0205437 5.32207
RightShoulder  2.13675 9.55916 8.97919
RightArm  -65.5218 64.0633 -34.3849
RightForeArm  32.6289 16.4748 3.16611
RightHand  -25.6801 39.2446 -60.3994
LeftUpLeg  -37.3826 17.1119 -7.99274
LeftLeg  41.2204 7.01906 6.93779
LeftFoot  -20.3492 -0.308623 -5.42498
LeftToes  1.45487e-011 -6.19069e-011 1.65092e-011
729
root  18.3525 37.2382 9.88251 -125.884 -82.9794 144.315
RightUpLeg  -55.551 -21.8455 12.8014
RightLeg  16.4388 -3.34778 1.07648
RightFoot  1.53705 -0.17629 1.99185
RightToes  5.82063e-011 0 -3.6325e-017
Spine  67.4867 -4.76213 6.45586
Spine1  4.90463 0.912093 -4.68525
HEad  -55.0729 -7.75698 0.63861
LeftShoulder1  3.7192 -20.6068 -7.85764
LeftArm  -68.2047 -67.3859 39.6451
LeftForeArm  64.035 -25.2327 -2.3085
LeftHand  -0.244104 0.0205437 5.32207
RightShoulder  1.99986 9.03739 8.52837
RightArm  -65.7905 64.6004 -34.2278
RightForeArm  32.7565 18.3242 3.03551
RightHand  -25.5185 39.1401 -60.2002
LeftUpLeg  -35.0333 17.0061 -7.8907
LeftLeg  43.1369 6.69614 7.0685
LeftFoot  -21.7731 -0.564352 -7.5883
LeftToes  1.45487e-011 -6.19069e-011 1.65092e-011
730
root  16.9289 37.0518 9.5938 -126.679 -82.8167 144.238
RightUpLeg  -55.1909 -20.9523 12.3407
RightLeg  19.0215 -2.50782 0.956734
RightFoot  6.54431 0.825591 -5.08214
RightToes  5.82063e-011 0 -3.6325e-017
Spine  67.5502 -4.95278 7.26663
Spine1  4.76256 0.856357 -4.25768
HEad  -53.8398 -8.026 0.576923
LeftShoulder1  4.16686 -21.0127 -9.57134
LeftArm  -64.1318 -67.3344 37.2649
LeftForeArm  63.4909 -25.6609 -2.41276
LeftHand  -0.244104 0.0205437 5.32207
RightShoulder  2.11974 9.36725 9.1097
RightArm  -61.6961 64.6844 -31.9512
RightForeArm  32.5652 20.1204 3.11444
RightHand  -25.8521 39.3351 -60.635
LeftUpLeg  -33.9831 17.5279 -6.43484
LeftLeg  47.6284 5.59772 6.95868
LeftFoot  -20.1129 -0.757126 -11.7148
LeftToes  1.45487e-011 -6.19069e-011 1.65092e-011
731
root  15.55 36.8775 9.32435 -135.165 -83.006 151.897
RightUpLeg  -56.2583 -21.5376 14.8072
RightLeg  25.6489 -0.117255 -0.543886
RightFoot  6.47343 1.40183 -8.65425
RightToes  5.82063e-011 0 -3.6325e-017
Spine  67.8374 -4.99705 8.40746
Spine1  3.75403 1.31393 -3.70692
HEad  -52.8158 -8.42297 -0.155511
LeftShoulder1  4.90849 -21.7665 -12.268
LeftArm  -59.6043 -66.9704 35.6498
LeftForeArm  62.5493 -25.7555 -2.46467
LeftHand  -0.244104 0.0205437 5.32207
RightShoulder  2.21133 9.80854 9.27048
RightArm  -57.4318 64.7113 -29.8742
RightForeArm  32.5469 21.6521 3.18798
RightHand  -25.825 39.3018 -60.6188
LeftUpLeg  -35.4241 18.1386 -4.006
LeftLeg  55.2328 4.87348 8.07243
LeftFoot  -13.2817 -0.178743 -13.9992
LeftToes  1.45487e-011 -6.19069e-011 1.65092e-011
